<?xml version="1.0" encoding="UTF-8"?>
<svg version="1.1" xmlns="http://www.w3.org/2000/svg" width="512" height="512">
<path d="M0 0 C0.02333058 13.80340887 0.04091354 27.6068147 0.05181217 41.41023922 C0.05704166 47.81899128 0.0641405 54.22773015 0.07543945 60.63647461 C0.08626599 66.81559441 0.09227634 72.99470148 0.09487724 79.17383003 C0.09673192 81.5370561 0.10035332 83.90028144 0.10573006 86.26350212 C0.11293738 89.56101896 0.11399107 92.85848247 0.11352539 96.15600586 C0.11712067 97.14358887 0.12071594 98.13117188 0.12442017 99.14868164 C0.1230455 100.04195663 0.12167084 100.93523163 0.12025452 101.85557556 C0.12163721 103.02671355 0.12163721 103.02671355 0.12304783 104.22151089 C0 106 0 106 -1 107 C-3.07639815 107.21377799 -5.1536735 107.42124214 -7.23388672 107.59399414 C-23.72529443 108.99143874 -37.4990003 113.52603069 -49 126 C-50.03489854 127.30643132 -51.03678461 128.63985519 -52 130 C-52.46921875 130.66257813 -52.9384375 131.32515625 -53.421875 132.0078125 C-60.43246616 143.18351959 -61.63665128 157.64910527 -58.828125 170.34765625 C-55.79620175 180.05839158 -50.89825386 188.22869699 -42.5625 194.125 C-41.63566406 194.78757813 -40.70882812 195.45015625 -39.75390625 196.1328125 C-37.21713158 197.85278171 -34.64555269 199.45396013 -32 201 C-33.35973034 203.92764905 -34.94026223 206.34414908 -36.9375 208.875 C-41.05718874 214.34441562 -43.62572752 218.71522385 -43.4375 225.69140625 C-42.79394661 229.0872996 -41.15348785 231.44662859 -39.09375 234.17578125 C-38 236 -38 236 -38 240 C-38.72703125 240.30550781 -39.4540625 240.61101562 -40.203125 240.92578125 C-52.9098479 246.70896924 -62.05805163 254.60685168 -67.7890625 267.3828125 C-71.54894851 278.61395589 -70.7063086 290.52561416 -65.8125 301.25 C-59.3154892 313.08650818 -47.31244548 319.66641239 -34.6875 323.4375 C-11.30395715 329.72764482 17.31037403 327.56056118 38.7734375 316.3046875 C42.00973002 314.40833364 44.97074731 312.20883008 48 310 C48.66 310 49.32 310 50 310 C50 309.34 50 308.68 50 308 C50.66 308 51.32 308 52 308 C52 307.34 52 306.68 52 306 C52.66 306 53.32 306 54 306 C54 305.34 54 304.68 54 304 C54.66 304 55.32 304 56 304 C56.2784375 303.27039063 56.556875 302.54078125 56.84375 301.7890625 C57.91761836 299.19871787 59.15302513 296.83076516 60.5 294.375 C65.40266032 284.56967937 66.02241892 274.29889141 63.43359375 263.67578125 C60.40223073 254.58169218 54.27043512 250.20394694 46 246 C33.61379175 240.13001435 19.90752121 237.58122086 6.64160156 234.44189453 C-15.17935373 229.24763555 -15.17935373 229.24763555 -20.8125 222.0625 C-22.35024474 218.09673725 -22.23486485 216.06779009 -21 212 C-18.58087321 207.78336358 -18.58087321 207.78336358 -16 206 C-12.04384193 205.19514901 -8.14925511 205.3096326 -4.125 205.375 C12.17767595 205.18259651 26.3426366 202.63114248 38.58984375 191.13671875 C40 190 40 190 42 190 C42.40412109 189.15308594 42.40412109 189.15308594 42.81640625 188.2890625 C44.06077282 185.88246577 45.47724642 183.65641399 46.9375 181.375 C53.11377418 171.00067149 55.04800922 159.80864182 52.2734375 147.875 C50.49389046 142.66656964 48.07645891 138.08366486 44.953125 133.55859375 C44 132 44 132 44 130 C45.50240234 129.63648438 45.50240234 129.63648438 47.03515625 129.265625 C58.69872921 126.95899808 58.69872921 126.95899808 67.4375 119.75 C68.86194154 112.7860636 68.11561153 108.23122306 65 102 C62.83218695 103.0662204 60.69842233 104.16613568 58.58203125 105.33203125 C52.63842166 108.50922171 46.67778655 110.9650898 40.25 112.9375 C39.55366455 113.16091064 38.8573291 113.38432129 38.13989258 113.61450195 C30.87440369 115.73005402 25.02503882 114.78315524 18.125 111.5625 C14.36293934 109.807221 10.85222699 108.70235135 6.79248047 107.92163086 C5.8943161 107.7473204 4.99615173 107.57300995 4.07077026 107.39341736 C3.38741608 107.26358963 2.70406189 107.1337619 2 107 C1.82715057 97.02093298 1.66078749 87.04176796 1.5 77.0625 C1.48812275 76.32557545 1.4762455 75.58865089 1.46400833 74.82939529 C1.06944008 50.21802678 0.8570306 25.61493185 1 1 C4.67041016 -0.16259766 4.67041016 -0.16259766 7.63671875 1.30078125 C8.64347656 1.96464844 9.65023437 2.62851562 10.6875 3.3125 C11.86081488 4.06821697 13.03535393 4.82203577 14.2109375 5.57421875 C15.1405127 6.17435791 15.1405127 6.17435791 16.08886719 6.78662109 C19.28226359 8.81410961 22.54634832 10.71773256 25.8125 12.625 C26.5152002 13.03693604 27.21790039 13.44887207 27.94189453 13.87329102 C30.29341556 15.25088999 32.64651923 16.62575182 35 18 C36.34481445 18.78552246 36.34481445 18.78552246 37.71679688 19.58691406 C46.96682498 24.98855163 56.21809322 30.38800055 65.484375 35.76171875 C67.07463501 36.68549316 67.07463501 36.68549316 68.69702148 37.62792969 C70.70325771 38.79321633 72.71050433 39.95676601 74.71899414 41.11816406 C79.3834757 43.82958966 83.97962697 46.60716002 88.51171875 49.53515625 C92.98407296 52.40830983 97.55161753 54.9940428 102.23583984 57.50341797 C106.99223075 60.0786411 111.64695902 62.8271391 116.3125 65.5625 C117.34938965 66.16892334 118.3862793 66.77534668 119.45458984 67.40014648 C127.2538126 71.96579087 135.04819825 76.54029785 142.8137207 81.16308594 C147.53209278 83.96973698 152.27087828 86.72802015 157.0546875 89.421875 C158.54718018 90.2735022 158.54718018 90.2735022 160.06982422 91.14233398 C161.9620247 92.22086619 163.86167696 93.28647549 165.77001953 94.33618164 C166.62966309 94.82981201 167.48930664 95.32344238 168.375 95.83203125 C169.12523437 96.25202393 169.87546875 96.6720166 170.6484375 97.10473633 C175.49963446 101.01460364 178.58477884 104.25845029 179.55282784 110.65011501 C179.84033094 115.32746063 179.77728613 120.00419818 179.72875977 124.68774414 C179.73198148 126.49035766 179.73780237 128.29296812 179.74601746 130.0955658 C179.76051985 134.97588072 179.73765159 139.8553686 179.70715833 144.73558354 C179.68074466 149.84921989 179.68609055 154.96283216 179.6872406 160.07652283 C179.68443388 168.66191388 179.65842521 177.24698619 179.61743164 185.83227539 C179.57024329 195.75145072 179.55443805 205.67027727 179.5566383 215.58955675 C179.55866633 226.16089309 179.53783516 236.73209538 179.51029849 247.30339122 C179.50391172 250.34505331 179.50177594 253.38669371 179.50058174 256.42836189 C179.49756293 261.21127977 179.47920412 265.99390611 179.44908333 270.77672768 C179.44033896 272.52985091 179.43662602 274.28300771 179.43836594 276.03615189 C179.43984444 278.43330864 179.42281144 280.82965618 179.40113831 283.22669983 C179.40578411 283.91678747 179.41042992 284.60687511 179.41521651 285.31787449 C179.3167307 291.93510468 177.12572626 297.50898039 172.68310547 302.50341797 C168.92716899 305.8431178 164.43180932 308.12741944 160.0625 310.5625 C157.88630286 311.8026559 155.71053039 313.04355727 153.53515625 314.28515625 C152.4383252 314.90664551 151.34149414 315.52813477 150.21142578 316.16845703 C145.44063497 318.88933834 140.72029283 321.69273372 136 324.5 C125.37319849 330.79474114 114.70575894 337.01880992 104.03222656 343.23388672 C99.01994187 346.15328023 94.01008658 349.07683641 89 352 C87.01563682 353.15757235 85.03126179 354.31512438 83.046875 355.47265625 C82.05880859 356.04902832 81.07074219 356.62540039 80.05273438 357.21923828 C58.578125 369.74609375 58.578125 369.74609375 55.81054688 371.35888672 C53.87767912 372.48751225 51.94679625 373.61954176 50.01757812 374.75439453 C43.41131758 378.63286076 36.74580426 382.37024828 30 386 C28.97874023 386.55123535 27.95748047 387.1024707 26.90527344 387.67041016 C22.63192562 389.97692057 18.35856348 392.28338252 14.08203125 394.58398438 C13.05207031 395.14021484 12.02210938 395.69644531 10.9609375 396.26953125 C10.03071777 396.77073486 9.10049805 397.27193848 8.14208984 397.78833008 C6.08488002 398.82601029 6.08488002 398.82601029 5 400 C-2.67299248 400.93681885 -7.64252356 398.10061691 -14.25 394.4375 C-15.78515259 393.61149292 -15.78515259 393.61149292 -17.35131836 392.76879883 C-23.40295049 389.49414366 -29.3719303 386.10000287 -35.2734375 382.5625 C-38.35215763 380.79819047 -41.49813885 379.24258354 -44.6875 377.6875 C-52.18366031 373.99255511 -59.31066974 369.78057612 -66.48193359 365.49658203 C-71.36660519 362.5934371 -76.27854052 359.73681407 -81.1875 356.875 C-82.73642944 355.97080322 -82.73642944 355.97080322 -84.31665039 355.04833984 C-89.79674524 351.85282395 -95.2907601 348.68539965 -100.8125 345.5625 C-105.65748006 342.81153674 -110.36644625 339.91196668 -115.01171875 336.8359375 C-118.58274897 334.64197122 -122.25264397 332.67124633 -125.93823242 330.67724609 C-131.2814349 327.75022265 -136.54263534 324.68149818 -141.8125 321.625 C-151.59959886 315.95022061 -151.59959886 315.95022061 -161.45849609 310.40185547 C-175.43930753 302.60402926 -175.43930753 302.60402926 -178.40563893 294.16489911 C-179.32773636 290.80625399 -179.41433425 287.50915406 -179.38095093 284.05502319 C-179.3856309 283.296964 -179.39031087 282.53890481 -179.39513266 281.75787413 C-179.40701522 279.23993007 -179.3976523 276.7225371 -179.38818359 274.20458984 C-179.39225223 272.39050481 -179.39759575 270.57642225 -179.40411377 268.76234436 C-179.41775644 263.85135268 -179.41250183 258.94055067 -179.40297651 254.0295558 C-179.39536645 248.88473987 -179.40242905 243.73993988 -179.40713501 238.59512329 C-179.41258765 229.95856823 -179.40541281 221.32209023 -179.39111328 212.68554688 C-179.37477739 202.70388637 -179.38008409 192.72240961 -179.3965925 182.74075353 C-179.41020902 174.16390803 -179.41212651 165.58711781 -179.40427649 157.01026499 C-179.39960223 151.89051401 -179.39896858 146.77084939 -179.40888596 141.65110397 C-179.4175561 136.83950385 -179.41153278 132.02814064 -179.39420319 127.21656609 C-179.39023906 125.45172074 -179.39137113 123.68685543 -179.39799118 121.92201805 C-179.40619949 119.51141337 -179.3958943 117.10156606 -179.38095093 114.69100952 C-179.38764309 113.99411809 -179.39433526 113.29722667 -179.40123022 112.57921731 C-179.34630484 108.00558442 -178.40689671 104.88237231 -176 101 C-173.35546875 98.9453125 -173.35546875 98.9453125 -170.1875 97.125 C-169.60911377 96.78678223 -169.03072754 96.44856445 -168.43481445 96.10009766 C-166.63182146 95.05084475 -164.81741023 94.02403312 -163 93 C-161.453125 92.11054688 -161.453125 92.11054688 -159.875 91.203125 C-157.65297285 89.92872708 -155.42789553 88.66104326 -153.19921875 87.3984375 C-147.77233676 84.31243085 -142.38938114 81.150862 -137 78 C-129.50988341 73.6232936 -122.00815895 69.27171001 -114.46875 64.98046875 C-98.63000385 55.93740085 -82.86987869 46.75214559 -67.25146484 37.33349609 C-60.53975809 33.28700697 -53.83621129 29.28712218 -46.921875 25.59375 C-42.97256693 23.43958196 -39.08036146 21.19174114 -35.1875 18.9375 C-34.39206787 18.47746582 -33.59663574 18.01743164 -32.77709961 17.54345703 C-28.15951541 14.86321602 -23.56554793 12.14699636 -18.98828125 9.3984375 C-17.99094971 8.80168213 -16.99361816 8.20492676 -15.96606445 7.59008789 C-14.01454072 6.42052296 -12.06635134 5.24537319 -10.12182617 4.06420898 C-9.23599854 3.53384033 -8.3501709 3.00347168 -7.4375 2.45703125 C-6.25994141 1.7451062 -6.25994141 1.7451062 -5.05859375 1.01879883 C-3 0 -3 0 0 0 Z " fill="#41A6DF" transform="translate(257,51)"/>
<path d="M0 0 C0.02333058 13.80340887 0.04091354 27.6068147 0.05181217 41.41023922 C0.05704166 47.81899128 0.0641405 54.22773015 0.07543945 60.63647461 C0.08626599 66.81559441 0.09227634 72.99470148 0.09487724 79.17383003 C0.09673192 81.5370561 0.10035332 83.90028144 0.10573006 86.26350212 C0.11293738 89.56101896 0.11399107 92.85848247 0.11352539 96.15600586 C0.11712067 97.14358887 0.12071594 98.13117188 0.12442017 99.14868164 C0.1230455 100.04195663 0.12167084 100.93523163 0.12025452 101.85557556 C0.12163721 103.02671355 0.12163721 103.02671355 0.12304783 104.22151089 C0 106 0 106 -1 107 C-3.07639815 107.21377799 -5.1536735 107.42124214 -7.23388672 107.59399414 C-23.72529443 108.99143874 -37.4990003 113.52603069 -49 126 C-50.03489854 127.30643132 -51.03678461 128.63985519 -52 130 C-52.46921875 130.66257813 -52.9384375 131.32515625 -53.421875 132.0078125 C-60.43246616 143.18351959 -61.63665128 157.64910527 -58.828125 170.34765625 C-55.79620175 180.05839158 -50.89825386 188.22869699 -42.5625 194.125 C-41.63566406 194.78757813 -40.70882812 195.45015625 -39.75390625 196.1328125 C-37.21713158 197.85278171 -34.64555269 199.45396013 -32 201 C-33.35973034 203.92764905 -34.94026223 206.34414908 -36.9375 208.875 C-38.88735096 211.39199511 -40.15403225 213.35494387 -41.4375 216.3125 C-43.24050691 219.41367189 -44.54042741 219.74607055 -47.75415039 221.03295898 C-52.66148227 223.1460084 -57.30671456 225.83035173 -62 228.375 C-63.72162354 229.30493774 -63.72162354 229.30493774 -65.47802734 230.25366211 C-73.85706811 234.79030241 -82.16229433 239.45170713 -90.44213867 244.16674805 C-98.36266322 248.66765229 -106.35983273 253.01691705 -114.37817383 257.34057617 C-122.415757 261.67596014 -130.40729508 266.08781313 -138.38085938 270.53955078 C-143.33611953 273.30263488 -148.29713545 276.05537704 -153.25717163 278.80987549 C-156.12084506 280.40027268 -158.98423863 281.99117356 -161.84765625 283.58203125 C-163.41990967 284.45335693 -163.41990967 284.45335693 -165.02392578 285.34228516 C-166.93353858 286.40596612 -168.83861245 287.47786102 -170.73779297 288.56005859 C-171.94846436 289.24769287 -171.94846436 289.24769287 -173.18359375 289.94921875 C-173.8789624 290.34842529 -174.57433105 290.74763184 -175.29077148 291.15893555 C-177 292 -177 292 -179 292 C-179.0700669 267.9826417 -179.12297684 243.96529871 -179.15543652 219.94785881 C-179.17090839 208.79625915 -179.1920041 197.64472298 -179.22631836 186.49316406 C-179.25621082 176.77398484 -179.27557267 167.05485159 -179.28226548 157.33562768 C-179.28617798 152.18890258 -179.29537969 147.04230903 -179.31719017 141.89562607 C-179.33755284 137.05133942 -179.34383421 132.20723851 -179.33932304 127.36291313 C-179.34014834 125.58515984 -179.34611529 123.80740034 -179.35761642 122.02968407 C-179.37255721 119.60117572 -179.36894802 117.1733673 -179.36076355 114.74484253 C-179.36950207 114.04249414 -179.3782406 113.34014576 -179.38724393 112.61651409 C-179.3454504 108.02392438 -178.4207801 104.89680932 -176 101 C-173.35546875 98.9453125 -173.35546875 98.9453125 -170.1875 97.125 C-169.60911377 96.78678223 -169.03072754 96.44856445 -168.43481445 96.10009766 C-166.63182146 95.05084475 -164.81741023 94.02403312 -163 93 C-161.453125 92.11054688 -161.453125 92.11054688 -159.875 91.203125 C-157.65297285 89.92872708 -155.42789553 88.66104326 -153.19921875 87.3984375 C-147.77233676 84.31243085 -142.38938114 81.150862 -137 78 C-129.50988341 73.6232936 -122.00815895 69.27171001 -114.46875 64.98046875 C-98.63000385 55.93740085 -82.86987869 46.75214559 -67.25146484 37.33349609 C-60.53975809 33.28700697 -53.83621129 29.28712218 -46.921875 25.59375 C-42.97256693 23.43958196 -39.08036146 21.19174114 -35.1875 18.9375 C-34.39206787 18.47746582 -33.59663574 18.01743164 -32.77709961 17.54345703 C-28.15951541 14.86321602 -23.56554793 12.14699636 -18.98828125 9.3984375 C-17.99094971 8.80168213 -16.99361816 8.20492676 -15.96606445 7.59008789 C-14.01454072 6.42052296 -12.06635134 5.24537319 -10.12182617 4.06420898 C-9.23599854 3.53384033 -8.3501709 3.00347168 -7.4375 2.45703125 C-6.25994141 1.7451062 -6.25994141 1.7451062 -5.05859375 1.01879883 C-3 0 -3 0 0 0 Z " fill="#27A9F4" transform="translate(257,51)"/>
<path d="M0 0 C0.02333058 13.80340887 0.04091354 27.6068147 0.05181217 41.41023922 C0.05704166 47.81899128 0.0641405 54.22773015 0.07543945 60.63647461 C0.08626599 66.81559441 0.09227634 72.99470148 0.09487724 79.17383003 C0.09673192 81.5370561 0.10035332 83.90028144 0.10573006 86.26350212 C0.11293738 89.56101896 0.11399107 92.85848247 0.11352539 96.15600586 C0.11712067 97.14358887 0.12071594 98.13117188 0.12442017 99.14868164 C0.1230455 100.04195663 0.12167084 100.93523163 0.12025452 101.85557556 C0.12163721 103.02671355 0.12163721 103.02671355 0.12304783 104.22151089 C0 106 0 106 -1 107 C-3.07639815 107.21377799 -5.1536735 107.42124214 -7.23388672 107.59399414 C-23.72529443 108.99143874 -37.4990003 113.52603069 -49 126 C-50.03489854 127.30643132 -51.03678461 128.63985519 -52 130 C-52.46921875 130.66257813 -52.9384375 131.32515625 -53.421875 132.0078125 C-60.4372248 143.19110542 -60.44696396 156.2532499 -60 169 C-64.7554444 168.42385962 -68.42354034 166.2907184 -72.5 163.9375 C-74.11801513 163.02129703 -75.73654128 162.10599616 -77.35546875 161.19140625 C-78.25056152 160.68367676 -79.1456543 160.17594727 -80.06787109 159.65283203 C-85.01660147 156.86324796 -89.9952357 154.12780681 -94.97183228 151.3883667 C-98.09666015 149.66801464 -101.22012858 147.94519758 -104.34375 146.22265625 C-104.9754158 145.87440796 -105.6070816 145.52615967 -106.25788879 145.1673584 C-110.66320744 142.73833641 -115.06640512 140.30550036 -119.46875 137.87109375 C-121.91652507 136.51797284 -124.3644657 135.16515185 -126.8125 133.8125 C-127.71080536 133.3160498 -127.71080536 133.3160498 -128.6272583 132.80957031 C-138.07356487 127.59111763 -147.54935821 122.42875268 -157.0637207 117.33520508 C-162.44312005 114.44171476 -167.70450699 111.41738001 -172.8996582 108.20361328 C-175.07452629 106.86553675 -175.07452629 106.86553675 -178 106 C-176.6288959 101.15933369 -174.53459697 99.66943117 -170.25 97.1875 C-169.37565308 96.67340576 -169.37565308 96.67340576 -168.48364258 96.14892578 C-166.66397772 95.08426713 -164.83365274 94.04034567 -163 93 C-161.96746094 92.40574219 -160.93492187 91.81148438 -159.87109375 91.19921875 C-157.65013884 89.92659796 -155.42626933 88.66025235 -153.19921875 87.3984375 C-147.77233676 84.31243085 -142.38938114 81.150862 -137 78 C-129.50988341 73.6232936 -122.00815895 69.27171001 -114.46875 64.98046875 C-98.63000385 55.93740085 -82.86987869 46.75214559 -67.25146484 37.33349609 C-60.53975809 33.28700697 -53.83621129 29.28712218 -46.921875 25.59375 C-42.97256693 23.43958196 -39.08036146 21.19174114 -35.1875 18.9375 C-34.39206787 18.47746582 -33.59663574 18.01743164 -32.77709961 17.54345703 C-28.15951541 14.86321602 -23.56554793 12.14699636 -18.98828125 9.3984375 C-17.99094971 8.80168213 -16.99361816 8.20492676 -15.96606445 7.59008789 C-14.01454072 6.42052296 -12.06635134 5.24537319 -10.12182617 4.06420898 C-9.23599854 3.53384033 -8.3501709 3.00347168 -7.4375 2.45703125 C-6.25994141 1.7451062 -6.25994141 1.7451062 -5.05859375 1.01879883 C-3 0 -3 0 0 0 Z " fill="#58BFF9" transform="translate(257,51)"/>
<path d="M0 0 C3.0431202 0.50534089 5.3750983 1.63752057 8.01953125 3.1875 C9.17001953 3.85749023 9.17001953 3.85749023 10.34375 4.54101562 C11.1584375 5.02248047 11.973125 5.50394531 12.8125 6 C13.66199219 6.49693359 14.51148438 6.99386719 15.38671875 7.50585938 C21.05347251 10.82848302 26.69017934 14.20026304 32.31396484 17.5949707 C37.15790903 20.51273925 42.04050501 23.35980139 46.9375 26.1875 C47.71802734 26.63834961 48.49855469 27.08919922 49.30273438 27.55371094 C50.96466406 28.51353843 52.62661133 29.47333547 54.28857422 30.43310547 C59.36289001 33.36548065 64.43293723 36.30511093 69.5 39.25 C70.96747681 40.09921021 70.96747681 40.09921021 72.46459961 40.96557617 C77.21994237 43.73216709 81.90998141 46.56107664 86.53125 49.546875 C90.99691605 52.41632331 95.5583316 54.99763959 100.23583984 57.50341797 C104.99223075 60.0786411 109.64695902 62.8271391 114.3125 65.5625 C115.34938965 66.16892334 116.3862793 66.77534668 117.45458984 67.40014648 C125.25266634 71.96511985 133.04323227 76.54317999 140.81152344 81.15869141 C145.55063007 83.97344916 150.30526154 86.75531834 155.08984375 89.4921875 C156.08935059 90.0689624 157.08885742 90.6457373 158.11865234 91.23999023 C160.02635873 92.34003025 161.93917659 93.43127182 163.85791016 94.51196289 C168.94781803 97.46182827 172.65789626 100.11538685 176 105 C176 105.66 176 106.32 176 107 C175.175 107.43755615 174.35 107.8751123 173.5 108.32592773 C154.5656673 118.32484622 154.5656673 118.32484622 135.84008789 128.70581055 C130.08819093 131.97845482 124.26376592 135.11210674 118.4375 138.25 C110.48784003 142.5341844 102.59480879 146.90186585 94.75 151.375 C85.88260574 156.42587026 76.93547791 161.31208042 67.9375 166.125 C67.33200317 166.44909851 66.72650635 166.77319702 66.10266113 167.1071167 C60.43343955 170.1389918 54.7597064 173.14286068 49 176 C49.144375 175.45214844 49.28875 174.90429688 49.4375 174.33984375 C52.44296579 161.50400025 52.31988159 149.19299651 45.62109375 137.6171875 C44.7590592 136.2467736 43.87279838 134.89101212 42.953125 133.55859375 C42 132 42 132 42 130 C43.00160156 129.75765625 44.00320313 129.5153125 45.03515625 129.265625 C56.69872921 126.95899808 56.69872921 126.95899808 65.4375 119.75 C66.86194154 112.7860636 66.11561153 108.23122306 63 102 C60.83218695 103.0662204 58.69842233 104.16613568 56.58203125 105.33203125 C50.63842166 108.50922171 44.67778655 110.9650898 38.25 112.9375 C37.55366455 113.16091064 36.8573291 113.38432129 36.13989258 113.61450195 C28.87440369 115.73005402 23.02503882 114.78315524 16.125 111.5625 C12.36293934 109.807221 8.85222699 108.70235135 4.79248047 107.92163086 C3.8943161 107.7473204 2.99615173 107.57300995 2.07077026 107.39341736 C1.38741608 107.26358963 0.70406189 107.1337619 0 107 C-1.09821605 43.5970036 -1.09821605 43.5970036 -1.125 17.5 C-1.12749756 16.63883575 -1.12999512 15.77767151 -1.13256836 14.89041138 C-1.13831011 12.52064681 -1.13707909 10.15101501 -1.1328125 7.78125 C-1.13168457 6.48251953 -1.13055664 5.18378906 -1.12939453 3.84570312 C-1 1 -1 1 0 0 Z " fill="#65BFF2" transform="translate(259,51)"/>
<path d="M0 0 C0.01417969 0.556875 0.02835938 1.11375 0.04296875 1.6875 C0.39049363 7.24789815 1.62508666 10.6945222 4.94140625 15.17578125 C6 17 6 17 6 21 C5.27296875 21.30550781 4.5459375 21.61101562 3.796875 21.92578125 C-8.9098479 27.70896924 -18.05805163 35.60685168 -23.7890625 48.3828125 C-27.54894851 59.61395589 -26.7063086 71.52561416 -21.8125 82.25 C-15.53665723 93.68357563 -3.91418053 100.29561145 8.1875 104.375 C19.60993461 106.7508664 31.36496838 107.13814581 43 108 C43 132.09 43 156.18 43 181 C38.97811743 179.65937248 36.07370997 178.64850372 32.53125 176.64453125 C31.31538208 175.96414795 31.31538208 175.96414795 30.07495117 175.27001953 C29.22521729 174.78903809 28.3754834 174.30805664 27.5 173.8125 C21.78480249 170.61842498 16.0793614 167.48100608 10.1875 164.625 C-8.38370436 155.49269786 -26.29697293 144.66405672 -43.875 133.75 C-48.56289005 130.84187962 -53.3244583 128.16366184 -58.1875 125.5625 C-62.37634414 123.23536437 -66.41806377 120.68332814 -70.46875 118.125 C-74.22122089 115.81345548 -78.10498581 113.75239132 -81.97998047 111.65527344 C-87.30868002 108.73461192 -92.55627791 105.67358555 -97.8125 102.625 C-106.65154357 97.48475149 -106.65154357 97.48475149 -115.5546875 92.45703125 C-131.66839588 83.51897477 -131.66839588 83.51897477 -134 77 C-133.8425293 74.55249023 -133.8425293 74.55249023 -133 72 C-130.96899414 70.39770508 -130.96899414 70.39770508 -128.28515625 69.01953125 C-127.29862061 68.50084473 -126.31208496 67.9821582 -125.2956543 67.44775391 C-124.22871338 66.90812012 -123.16177246 66.36848633 -122.0625 65.8125 C-119.84071349 64.65056592 -117.61936202 63.4877996 -115.3984375 62.32421875 C-114.30112305 61.75622559 -113.20380859 61.18823242 -112.07324219 60.60302734 C-108.07009985 58.51495675 -104.12396418 56.33547604 -100.1875 54.125 C-98.73972557 53.31745327 -97.29180343 52.51017132 -95.84375 51.703125 C-95.080625 51.27708984 -94.3175 50.85105469 -93.53125 50.41210938 C-78.9162326 42.25882421 -64.2793313 34.14487872 -49.625 26.0625 C-49.03296783 25.73592407 -48.44093567 25.40934814 -47.83096313 25.07287598 C-41.51797405 21.59072116 -35.20346357 18.11134755 -28.88650513 14.63639832 C-26.19680041 13.15656026 -23.50763909 11.67573643 -20.81854248 10.1947937 C-19.53272696 9.4870359 -18.24663892 8.77977296 -16.96026611 8.07302856 C-15.17858506 7.0941475 -13.39786383 6.11352005 -11.6171875 5.1328125 C-10.60253418 4.57480957 -9.58788086 4.01680664 -8.54248047 3.44189453 C-2.47341686 0 -2.47341686 0 0 0 Z " fill="#3EAAE8" transform="translate(213,270)"/>
<path d="M0 0 C0.82242188 0.18957275 1.64484375 0.37914551 2.4921875 0.57446289 C19.9245275 4.75123825 44.79312629 10.72162789 55.1875 26.5625 C56.8815534 31.64466019 56.76950748 35.84649412 54.5 40.6875 C49.36637047 50.00342213 41.09585895 54.56433098 31.34765625 57.765625 C16.37088736 61.54221444 -4.16721798 61.70550529 -17.875 53.90625 C-25.67521408 48.49642411 -31.72667157 43.09561725 -33.8125 33.5625 C-35.05938533 25.05980323 -32.56289023 18.11122231 -28.1875 10.875 C-20.00489793 2.90772956 -11.47890589 -2.84712083 0 0 Z " fill="#3EA9E6" transform="translate(242.8125,300.4375)"/>
<path d="M0 0 C1 1 1 1 1.12025452 3.51197815 C1.11803391 4.62894577 1.11581329 5.74591339 1.11352539 6.89672852 C1.11344986 8.15796036 1.11337433 9.4191922 1.11329651 10.71864319 C1.1081891 12.10539794 1.10297309 13.49215229 1.09765625 14.87890625 C1.09579201 16.28995209 1.09436814 17.70099857 1.09336853 19.11204529 C1.08954379 22.83240535 1.0797139 26.5527266 1.06866455 30.27307129 C1.05844948 34.06680781 1.05387071 37.86055058 1.04882812 41.65429688 C1.03809158 49.10288231 1.0210157 56.55143572 1 64 C-0.6020322 64.01206693 -2.20409066 64.02068037 -3.80615234 64.02783203 C-5.14436539 64.03558151 -5.14436539 64.03558151 -6.50961304 64.04348755 C-16.00641534 63.87765282 -23.18388026 59.85990264 -29.71875 53.265625 C-36.22332554 46.05957562 -38.36985869 38.90340317 -38.21875 29.17578125 C-37.54070644 22.43166938 -35.28185075 16.24872028 -31 11 C-30.34 11 -29.68 11 -29 11 C-29 10.34 -29 9.68 -29 9 C-26.98828125 7.5625 -26.98828125 7.5625 -24.3125 6 C-23.44238281 5.484375 -22.57226562 4.96875 -21.67578125 4.4375 C-14.64265059 0.6591174 -7.97313698 -0.31892548 0 0 Z " fill="#58BAF2" transform="translate(256,176)"/>
<path d="M0 0 C4.89514128 0.81585688 9.10260477 1.94389391 13.6875 3.6875 C14.7403418 4.08787476 14.7403418 4.08787476 15.81445312 4.49633789 C25.63288168 8.32197674 36.85344184 13.08906973 42.5 22.5 C43.88932005 29.44660027 42.77596189 34.16330074 39 40 C32.17625021 47.93030381 24.9408894 51.3236067 15 54 C10.05 54.33 5.1 54.66 0 55 C0 36.85 0 18.7 0 0 Z " fill="#4DADE5" transform="translate(256,305)"/>
<path d="M0 0 C6.97657169 0.10027926 13.59875735 4.15769796 19 8.3125 C19 8.9725 19 9.6325 19 10.3125 C19.66 10.3125 20.32 10.3125 21 10.3125 C27.11327168 17.50343175 28.58167051 26.15118954 28 35.3125 C26.58565831 44.50572099 22.13114683 51.45008482 15 57.3125 C9.57872664 60.94171003 3.47048347 62.66923556 -3 63.3125 C-4.76723811 61.54526189 -4.12762833 59.0093116 -4.12939453 56.61523438 C-4.13254669 55.39727173 -4.13569885 54.17930908 -4.13894653 52.92443848 C-4.13715675 51.58504195 -4.1351058 50.24564576 -4.1328125 48.90625 C-4.1334856 47.5424396 -4.13445567 46.17862932 -4.13571167 44.81481934 C-4.13718838 41.95319479 -4.13503497 39.0916014 -4.13037109 36.22998047 C-4.12467381 32.55431386 -4.12795296 28.87872026 -4.13394356 25.20305634 C-4.13754991 22.38587896 -4.13641025 19.56871902 -4.13381577 16.75154114 C-4.1331467 15.39589937 -4.13397421 14.04025604 -4.13629532 12.68461609 C-4.13882301 10.79299956 -4.13429014 8.90137751 -4.12939453 7.00976562 C-4.12859894 5.93134399 -4.12780334 4.85292236 -4.12698364 3.74182129 C-3.9392821 0.15090723 -3.64223923 0.37939992 0 0 Z " fill="#67BFF1" transform="translate(262,176.6875)"/>
<path d="M0 0 C0 0.66 0 1.32 0 2 C1.05247925 2.39832031 1.05247925 2.39832031 2.1262207 2.8046875 C5.19081491 4.07936707 8.05626865 5.55483714 10.98046875 7.125 C12.71248535 8.0533667 12.71248535 8.0533667 14.47949219 9.00048828 C15.71557621 9.66684118 16.95157703 10.33334844 18.1875 11 C19.4638259 11.68611196 20.7401934 12.37214655 22.01660156 13.05810547 C29.48742891 17.07844323 36.92996535 21.14662871 44.33276367 25.29101562 C50.52375034 28.7525506 56.75892775 32.12975277 63 35.5 C70.62309083 39.61874104 78.22640316 43.7680809 85.79443359 47.98706055 C102.17080374 57.11620832 118.5881027 66.17391955 135.0625 75.125 C135.99400879 75.63264893 136.92551758 76.14029785 137.88525391 76.66333008 C144.51823066 80.25683927 151.23562941 83.66093508 158 87 C157.67 88.65 157.34 90.3 157 92 C153.07151603 91.39916261 150.11645184 90.19147512 146.6328125 88.296875 C145.59495605 87.73572998 144.55709961 87.17458496 143.48779297 86.59643555 C142.37807129 85.98711182 141.26834961 85.37778809 140.125 84.75 C138.95088954 84.11135625 137.77656985 83.47309705 136.60205078 82.83520508 C128.38161156 78.35850123 120.23799855 73.75017655 112.10986328 69.10839844 C103.14117947 64.01703255 94.03027061 59.20806598 84.90936279 54.39730835 C75.44673322 49.40322743 66.08495144 44.27372036 56.80078125 38.953125 C47.27491421 33.52512742 37.57925084 28.42508753 27.87036133 23.33422852 C21.57552494 20.0244395 15.34315184 16.66469551 9.23046875 13.02734375 C8.20115234 12.41890625 7.17183594 11.81046875 6.11132812 11.18359375 C4.23412261 10.06253715 2.36827364 8.92211253 0.51757812 7.7578125 C-5.78096432 4.00487035 -10.71713076 3.32024239 -18 4 C-17.99214478 5.08269165 -17.99214478 5.08269165 -17.98413086 6.18725586 C-17.96342642 9.43732849 -17.95036082 12.68738728 -17.9375 15.9375 C-17.92912109 17.07380859 -17.92074219 18.21011719 -17.91210938 19.38085938 C-17.90727539 21.00024414 -17.90727539 21.00024414 -17.90234375 22.65234375 C-17.89448853 24.15269165 -17.89448853 24.15269165 -17.88647461 25.68334961 C-18 28 -18 28 -19 29 C-24.06803046 29.49923882 -27.6971673 28.14128856 -32.125 25.875 C-32.73214844 25.59140625 -33.33929688 25.3078125 -33.96484375 25.015625 C-38.39643264 22.79500312 -40.69470908 20.35888754 -43 16 C-43.08459003 11.26295848 -41.97769659 7.87709499 -38.83959961 4.26171875 C-34.78763339 1.48261305 -29.48055682 2.20055167 -24.75 2.25 C-14.68172599 2.21744326 -14.68172599 2.21744326 -4.81347656 0.42871094 C-3 0 -3 0 0 0 Z " fill="#8CC9EC" transform="translate(278,254)"/>
<path d="M0 0 C0.02333058 13.80340887 0.04091354 27.6068147 0.05181217 41.41023922 C0.05704166 47.81899128 0.0641405 54.22773015 0.07543945 60.63647461 C0.08626599 66.81559441 0.09227634 72.99470148 0.09487724 79.17383003 C0.09673192 81.5370561 0.10035332 83.90028144 0.10573006 86.26350212 C0.11293738 89.56101896 0.11399107 92.85848247 0.11352539 96.15600586 C0.11712067 97.14358887 0.12071594 98.13117188 0.12442017 99.14868164 C0.1230455 100.04195663 0.12167084 100.93523163 0.12025452 101.85557556 C0.12163721 103.02671355 0.12163721 103.02671355 0.12304783 104.22151089 C0 106 0 106 -1 107 C-3.07639815 107.21377799 -5.1536735 107.42124214 -7.23388672 107.59399414 C-23.72529443 108.99143874 -37.4990003 113.52603069 -49 126 C-50.03489854 127.30643132 -51.03678461 128.63985519 -52 130 C-52.46921875 130.66257813 -52.9384375 131.32515625 -53.421875 132.0078125 C-60.4372248 143.19110542 -60.44696396 156.2532499 -60 169 C-60.99 168.67 -61.98 168.34 -63 168 C-63.74185227 151.46493712 -62.36201714 139.56867718 -52 126 C-51.39285156 125.1853125 -50.78570312 124.370625 -50.16015625 123.53125 C-39.95566829 111.57373065 -25.15835001 106.19092485 -10 104 C-7.69 104 -5.38 104 -3 104 C-3 71 -3 38 -3 4 C-16.89428542 11.78079983 -30.6786917 19.52395629 -44.34765625 27.65625 C-50.49228177 31.30424907 -56.68121121 34.87379348 -62.875 38.4375 C-71.26539539 43.26567254 -79.64273522 48.1146922 -88 53 C-96.31746719 57.86111578 -104.65205714 62.69141139 -113 67.5 C-124.33219612 74.02860503 -135.63532982 80.60577617 -146.92675781 87.20458984 C-152.44946075 90.43099256 -157.97492772 93.65265698 -163.5 96.875 C-165.53126128 98.05987649 -167.56251238 99.24477044 -169.59375 100.4296875 C-171.0625 101.28645833 -172.53125 102.14322917 -174 103 C-174.66 102.34 -175.32 101.68 -176 101 C-169.07348261 96.67380309 -162.1149191 92.44754066 -155.00732422 88.42382812 C-148.97388565 85.00221835 -142.98779718 81.50072153 -137 78 C-129.50988341 73.6232936 -122.00815895 69.27171001 -114.46875 64.98046875 C-98.63000385 55.93740085 -82.86987869 46.75214559 -67.25146484 37.33349609 C-60.53975809 33.28700697 -53.83621129 29.28712218 -46.921875 25.59375 C-42.97256693 23.43958196 -39.08036146 21.19174114 -35.1875 18.9375 C-34.39206787 18.47746582 -33.59663574 18.01743164 -32.77709961 17.54345703 C-28.15951541 14.86321602 -23.56554793 12.14699636 -18.98828125 9.3984375 C-17.99094971 8.80168213 -16.99361816 8.20492676 -15.96606445 7.59008789 C-14.01454072 6.42052296 -12.06635134 5.24537319 -10.12182617 4.06420898 C-9.23599854 3.53384033 -8.3501709 3.00347168 -7.4375 2.45703125 C-6.25994141 1.7451062 -6.25994141 1.7451062 -5.05859375 1.01879883 C-3 0 -3 0 0 0 Z " fill="#4EBBFA" transform="translate(257,51)"/>
<path d="M0 0 C0 1.98 0 3.96 0 6 C-1.21042969 6.5878125 -1.21042969 6.5878125 -2.4453125 7.1875 C-21.95515014 16.76071907 -41.10036597 27.12477645 -59.95532227 37.92456055 C-69.25997974 43.21829713 -78.73344012 48.18126052 -88.20849609 53.16061401 C-99.45195 59.07278018 -110.5605324 65.17024357 -121.578125 71.49609375 C-131.22160031 77 -131.22160031 77 -134 77 C-133.79467773 74.6862793 -133.79467773 74.6862793 -133 72 C-130.96899414 70.39770508 -130.96899414 70.39770508 -128.28515625 69.01953125 C-127.29862061 68.50084473 -126.31208496 67.9821582 -125.2956543 67.44775391 C-124.22871338 66.90812012 -123.16177246 66.36848633 -122.0625 65.8125 C-119.84071349 64.65056592 -117.61936202 63.4877996 -115.3984375 62.32421875 C-114.30112305 61.75622559 -113.20380859 61.18823242 -112.07324219 60.60302734 C-108.07009985 58.51495675 -104.12396418 56.33547604 -100.1875 54.125 C-98.73972557 53.31745327 -97.29180343 52.51017132 -95.84375 51.703125 C-95.080625 51.27708984 -94.3175 50.85105469 -93.53125 50.41210938 C-78.9162326 42.25882421 -64.2793313 34.14487872 -49.625 26.0625 C-49.03296783 25.73592407 -48.44093567 25.40934814 -47.83096313 25.07287598 C-41.51797405 21.59072116 -35.20346357 18.11134755 -28.88650513 14.63639832 C-26.19680041 13.15656026 -23.50763909 11.67573643 -20.81854248 10.1947937 C-19.53272696 9.4870359 -18.24663892 8.77977296 -16.96026611 8.07302856 C-15.17858506 7.0941475 -13.39786383 6.11352005 -11.6171875 5.1328125 C-10.60253418 4.57480957 -9.58788086 4.01680664 -8.54248047 3.44189453 C-2.47341686 0 -2.47341686 0 0 0 Z " fill="#72C4F3" transform="translate(213,270)"/>
<path d="M0 0 C0 8.58 0 17.16 0 26 C-6.87122076 24.62575585 -15.36444348 21.88882755 -19.8125 16.0625 C-21.35024474 12.09673725 -21.23486485 10.06779009 -20 6 C-15.96831345 -2.52856771 -8.3252223 -0.43435942 0 0 Z " fill="#3DABEA" transform="translate(256,257)"/>
<path d="M0 0 C18.80328809 1.79953343 40.57342353 7.26366599 55 20 C61.81090647 29.04020995 63.94006685 37.82364973 63 49 C61.70514257 57.4111327 58.85956748 64.04881455 54 71 C53.29875 72.010625 52.5975 73.02125 51.875 74.0625 C41.8251779 85.32084502 25.78043218 93.43903403 11 96 C9.3338003 96.03945041 7.66590468 96.05039213 6 96 C7.98 95.505 7.98 95.505 10 95 C10 94.34 10 93.68 10 93 C11.55847656 92.54560547 11.55847656 92.54560547 13.1484375 92.08203125 C24.23854811 88.77989722 33.60330171 84.85175917 43 78 C43.66 78 44.32 78 45 78 C45 77.34 45 76.68 45 76 C45.66 76 46.32 76 47 76 C47 75.34 47 74.68 47 74 C47.66 74 48.32 74 49 74 C49 73.34 49 72.68 49 72 C49.66 72 50.32 72 51 72 C51.2784375 71.27039063 51.556875 70.54078125 51.84375 69.7890625 C52.91761836 67.19871787 54.15302513 64.83076516 55.5 62.375 C60.40266032 52.56967937 61.02241892 42.29889141 58.43359375 31.67578125 C55.40223073 22.58169218 49.27043512 18.20394694 41 14 C27.93003372 7.8059725 13.13507277 4.75449438 -1 2 C-0.67 1.34 -0.34 0.68 0 0 Z " fill="#329EDF" transform="translate(262,283)"/>
<path d="M0 0 C0.99 0.99 0.99 0.99 2 2 C-9.54817045 8.80965486 -21.11968062 15.57865887 -32.703125 22.328125 C-36.96651307 24.81266034 -41.22661198 27.3027128 -45.484375 29.796875 C-46.54454834 30.41723633 -47.60472168 31.03759766 -48.69702148 31.67675781 C-50.70508928 32.85192044 -52.71246724 34.028263 -54.71899414 35.20605469 C-60.15150903 38.38287536 -65.62430538 41.46464492 -71.15893555 44.45996094 C-74.18730448 46.10153103 -77.20331645 47.76448641 -80.21875 49.4296875 C-82.3123932 50.57831968 -84.40614374 51.72675625 -86.5 52.875 C-87.56992187 53.46796875 -88.63984375 54.0609375 -89.7421875 54.671875 C-90.76570313 55.23132813 -91.78921875 55.79078125 -92.84375 56.3671875 C-93.76349609 56.87362793 -94.68324219 57.38006836 -95.63085938 57.90185547 C-98 59 -98 59 -101 59 C-98.79972403 56.5993433 -96.64151756 55.10231448 -93.7734375 53.57421875 C-92.91943359 53.11474854 -92.06542969 52.65527832 -91.18554688 52.18188477 C-89.79432617 51.44216431 -89.79432617 51.44216431 -88.375 50.6875 C-86.37175979 49.60795026 -84.36918048 48.52717343 -82.3671875 47.4453125 C-81.32143555 46.88102539 -80.27568359 46.31673828 -79.19824219 45.73535156 C-59.92007388 35.27510574 -41.00740298 24.21875558 -22.2109375 12.921875 C-21.64014465 12.57893906 -21.06935181 12.23600311 -20.48126221 11.88267517 C-17.69291112 10.20709619 -14.90594111 8.52929795 -12.12109375 6.84790039 C-10.61869141 5.94285767 -10.61869141 5.94285767 -9.0859375 5.01953125 C-8.1995459 4.48432861 -7.3131543 3.94912598 -6.39990234 3.39770508 C-4.2996025 2.17448874 -2.1883451 1.05542391 0 0 Z " fill="#2F9BD7" transform="translate(361,391)"/>
<path d="M0 0 C-0.33 0.99 -0.66 1.98 -1 3 C-2.84851563 3.14695313 -2.84851563 3.14695313 -4.734375 3.296875 C-22.13008003 4.80609946 -36.76654057 8.73160582 -49 22 C-50.03489854 23.30643132 -51.03678461 24.63985519 -52 26 C-52.46921875 26.66257813 -52.9384375 27.32515625 -53.421875 28.0078125 C-60.4372248 39.19110542 -60.44696396 52.2532499 -60 65 C-60.99 64.67 -61.98 64.34 -63 64 C-63.74185227 47.46493712 -62.36201714 35.56867718 -52 22 C-51.39285156 21.1853125 -50.78570312 20.370625 -50.16015625 19.53125 C-38.08333427 5.37974794 -18.22425707 -1.13376715 0 0 Z " fill="#41B0F5" transform="translate(257,155)"/>
<path d="M0 0 C0.66 0 1.32 0 2 0 C5.82041912 6.32756917 7.24751618 11.60322267 6 19 C3.91782418 24.2006419 0.28178116 26.93284277 -4.73046875 29.15625 C-8.75889746 30.65391024 -12.85274994 31.87820285 -17 33 C-16.67386719 33.4846875 -16.34773438 33.969375 -16.01171875 34.46875 C-7.80035556 47.06435135 -7.26743975 59.20660095 -9 74 C-11.475 74.99 -11.475 74.99 -14 76 C-13.7834375 75.17822266 -13.7834375 75.17822266 -13.5625 74.33984375 C-10.55703421 61.50400025 -10.68011841 49.19299651 -17.37890625 37.6171875 C-18.2409408 36.2467736 -19.12720162 34.89101212 -20.046875 33.55859375 C-21 32 -21 32 -21 30 C-19.49759766 29.63648438 -19.49759766 29.63648438 -17.96484375 29.265625 C-6.30127079 26.95899808 -6.30127079 26.95899808 2.4375 19.75 C3.94487206 12.38062547 2.67507667 6.87876859 0 0 Z " fill="#53B2EE" transform="translate(322,151)"/>
<path d="M0 0 C0.99 0 1.98 0 3 0 C3 23.43 3 46.86 3 71 C2.01 71 1.02 71 0 71 C0 47.57 0 24.14 0 0 Z " fill="#8DC8EB" transform="translate(256,379)"/>
<path d="M0 0 C-2.09273722 1.06320672 -4.18886774 2.08446849 -6.33203125 3.04296875 C-14.29155833 6.71563243 -19.84090892 10.76684709 -23.4375 18.9375 C-26.13500052 26.62305104 -25.37212426 32.66998343 -22 40 C-21.443125 41.299375 -21.443125 41.299375 -20.875 42.625 C-13.9224235 51.4315969 -2.48776232 54.71356147 8.19165039 55.98339844 C11.79143917 56.36792053 15.3922968 56.69836585 19 57 C19 57.66 19 58.32 19 59 C4.67802298 59.78917016 -8.14234176 57.04527599 -19.25 47.875 C-25.32617816 42.16339253 -28.05700187 36.32575889 -28.5 28 C-28.17568643 20.64503157 -25.30430949 13.16472239 -20 8 C-7.06086957 -2.0173913 -7.06086957 -2.0173913 0 0 Z " fill="#1E96E0" transform="translate(237,301)"/>
<path d="M0 0 C0.8971875 0.5259375 0.8971875 0.5259375 1.8125 1.0625 C0.63494141 1.48208984 0.63494141 1.48208984 -0.56640625 1.91015625 C-8.89005673 5.08642042 -14.67990966 8.21291491 -18.84375 16.265625 C-20.49067871 20.32249669 -20.68455729 24.09714076 -20.625 28.4375 C-20.62032715 29.18410889 -20.6156543 29.93071777 -20.61083984 30.69995117 C-20.45409745 36.54975578 -19.24324257 41.03279234 -16.1875 46.0625 C-15.89617187 46.75730469 -15.60484375 47.45210937 -15.3046875 48.16796875 C-13.90008011 50.54990786 -12.70853343 50.99908226 -10.1875 52.0625 C-9.49914062 52.4646875 -8.81078125 52.866875 -8.1015625 53.28125 C-1.82523334 56.79428065 3.86751068 57.90642462 11.00390625 58.60546875 C11.93074219 58.75628906 12.85757813 58.90710938 13.8125 59.0625 C14.1425 59.7225 14.4725 60.3825 14.8125 61.0625 C4.72400059 61.65336656 -4.43875055 60.33041963 -12.40625 53.734375 C-20.47135798 46.16449295 -23.70709705 39.38864498 -24.4375 28.25 C-24.32252168 20.8482705 -21.85570504 13.78481585 -17.1875 8.0625 C-16.5275 8.0625 -15.8675 8.0625 -15.1875 8.0625 C-15.1875 7.4025 -15.1875 6.7425 -15.1875 6.0625 C-13.10546875 4.58984375 -13.10546875 4.58984375 -10.375 3 C-9.48167969 2.47277344 -8.58835938 1.94554687 -7.66796875 1.40234375 C-2.82800163 -1.2120007 -2.82800163 -1.2120007 0 0 Z " fill="#45B1F3" transform="translate(242.1875,178.9375)"/>
<path d="M0 0 C3.85915209 0.59142273 6.71312509 1.73694747 10.10546875 3.65234375 C11.06888184 4.19358887 12.03229492 4.73483398 13.02490234 5.29248047 C14.49757568 6.13770264 14.49757568 6.13770264 16 7 C16.91861816 7.52609863 17.83723633 8.05219727 18.78369141 8.59423828 C21.63334838 10.23906411 24.47408408 11.8983562 27.3125 13.5625 C28.34068848 14.16384766 29.36887695 14.76519531 30.42822266 15.38476562 C40.13675265 21.06824212 49.84236466 26.75869666 59.50292969 32.5234375 C61.26507983 33.56542851 63.0376654 34.58986872 64.81738281 35.6015625 C65.72584961 36.12492187 66.63431641 36.64828125 67.5703125 37.1875 C68.39547363 37.65542969 69.22063477 38.12335938 70.07080078 38.60546875 C72 40 72 40 73 43 C69.14152896 41.55953952 65.66276638 39.77121724 62.08984375 37.7265625 C60.94515625 37.07268555 59.80046875 36.41880859 58.62109375 35.74511719 C57.39308667 35.0386591 56.16522528 34.33194771 54.9375 33.625 C53.66928156 32.89744224 52.40105229 32.16990335 51.1328125 31.44238281 C41.50280761 25.90792902 31.95495836 20.24533292 22.45898438 14.48388672 C19.7561362 12.85283914 17.04313544 11.2396225 14.328125 9.62890625 C13.39548828 9.07428711 12.46285156 8.51966797 11.50195312 7.94824219 C9.70012967 6.87725061 7.89679814 5.80879118 6.09179688 4.74316406 C5.29322266 4.26717773 4.49464844 3.79119141 3.671875 3.30078125 C2.9612793 2.87966064 2.25068359 2.45854004 1.51855469 2.0246582 C1.01743164 1.686521 0.51630859 1.34838379 0 1 C0 0.67 0 0.34 0 0 Z " fill="#58B8EF" transform="translate(346,103)"/>
<path d="M0 0 C11.63471417 2.93441906 23.01568625 7.70883669 31 17 C33.01123656 21.19007617 33.47377477 24.34121476 33 29 C30.17186649 37.02578428 24.39689186 42.88021213 17 47 C11.38931078 49.29494326 6.12460646 51.30286515 0 51 C0 50.34 0 49.68 0 49 C0.89460938 48.78085937 1.78921875 48.56171875 2.7109375 48.3359375 C12.30177577 45.82064303 22.45915346 42.91353574 28 34 C29.55207881 29.34376356 29.57937972 24.85841308 29 20 C23.33495276 9.64663781 8.47040857 5.9846899 -2 2 C-1.34 1.34 -0.68 0.68 0 0 Z " fill="#3AA4E3" transform="translate(266,308)"/>
<path d="M0 0 C0.66 0.33 1.32 0.66 2 1 C1.67 20.14 1.34 39.28 1 59 C11.48508348 55.85447496 18.58375549 53.5114228 24.125 43.9296875 C25.6146937 40.64438086 26.12635806 37.4743908 26.31640625 33.890625 C26.35830078 33.13652344 26.40019531 32.38242188 26.44335938 31.60546875 C26.48267578 30.82816406 26.52199219 30.05085938 26.5625 29.25 C26.60568359 28.45722656 26.64886719 27.66445312 26.69335938 26.84765625 C26.79902991 24.89862185 26.89997966 22.94933252 27 21 C27.66 21 28.32 21 29 21 C31.17807187 29.71228747 30.10353195 37.55921032 26.3125 45.5625 C22.01574872 52.50706481 16.52193967 56.96877058 9 60 C5.7 60.66 2.4 61.32 -1 62 C-0.67 41.54 -0.34 21.08 0 0 Z " fill="#4FB3EE" transform="translate(260,178)"/>
<path d="M0 0 C0.33 0 0.66 0 1 0 C1.33 2.64 1.66 5.28 2 8 C2.33 8 2.66 8 3 8 C3.08636719 8.67804688 3.17273438 9.35609375 3.26171875 10.0546875 C4.8404075 20.51169006 8.41218965 29.44770871 17 36 C25.8923983 41.98483295 34.55955241 45.58822487 45 48 C45 48.66 45 49.32 45 50 C48.63 50.33 52.26 50.66 56 51 C56 51.33 56 51.66 56 52 C41.12464871 53.21431439 24.66638911 46.13469916 13.5 36.6875 C5.69935866 29.13022843 0.40924559 19.67562834 -0.17578125 8.703125 C-0.18602283 5.79451577 -0.13477576 2.90516648 0 0 Z " fill="#259AE5" transform="translate(184,328)"/>
<path d="M0 0 C0.99 0 1.98 0 3 0 C3 17.82 3 35.64 3 54 C2.01 54 1.02 54 0 54 C0 36.18 0 18.36 0 0 Z " fill="#8CCAEF" transform="translate(256,306)"/>
<path d="M0 0 C0.99 0.33 1.98 0.66 3 1 C4.17578125 3.44140625 4.17578125 3.44140625 5.3125 6.5625 C10.32743497 19.06285412 18.53706213 25.26319203 30 32 C28.63446739 34.93360834 27.04784103 37.38636204 25.0625 39.9375 C23.27805827 42.26031344 21.73106107 44.46103817 20.25 47 C19.8375 47.66 19.425 48.32 19 49 C18.34 49 17.68 49 17 49 C18.41600689 42.86397012 22.0663375 38.73301638 26 34 C23.55386302 32.02393917 21.10275118 30.07565923 18.5703125 28.2109375 C9.83315412 21.65109015 3.44927907 13.47638177 0 3 C0 2.01 0 1.02 0 0 Z " fill="#0E96EB" transform="translate(195,220)"/>
<path d="M0 0 C0 0.99 0 1.98 0 3 C-4.76261773 7.22084061 -10.9722474 9.34521548 -16.9375 11.25 C-17.68451172 11.50523437 -18.43152344 11.76046875 -19.20117188 12.0234375 C-27.70310731 14.81095732 -34.04392798 16.04547121 -42.4375 12.1875 C-48.21921188 9.64007235 -53.72821916 7.85591362 -60 7 C-60 6.34 -60 5.68 -60 5 C-51.9460369 5.53693087 -44.06070893 7.31149838 -36.875 11.12890625 C-30.46101055 14.10873885 -21.46985224 9.66959632 -15.25927734 7.44873047 C-9.88060188 5.44744641 -4.83724878 3.11458184 0 0 Z " fill="#49B3F2" transform="translate(319,151)"/>
<path d="M0 0 C3.63014128 0.58079056 6.39073773 1.55136386 9.59765625 3.3359375 C10.91032471 4.05958496 10.91032471 4.05958496 12.24951172 4.79785156 C13.17779785 5.31831055 14.10608398 5.83876953 15.0625 6.375 C16.02172363 6.90577148 16.98094727 7.43654297 17.96923828 7.98339844 C19.97232117 9.09210137 21.97392845 10.20347408 23.97412109 11.31738281 C27.87133282 13.48452685 31.77997122 15.63052802 35.68920898 17.77587891 C39.46174178 19.84646822 43.23098385 21.92301836 47 24 C47 24.66 47 25.32 47 26 C41.34886919 24.41291294 36.57213145 21.68354507 31.5 18.8125 C25.45463201 15.43418987 19.40451279 12.11508253 13.1875 9.0625 C8.68889138 6.85302989 4.3062735 4.56325804 0 2 C0 1.34 0 0.68 0 0 Z " fill="#2899DA" transform="translate(209,425)"/>
<path d="M0 0 C-1 3 -1 3 -3.30078125 4.21875 C-4.29464844 4.6415625 -5.28851563 5.064375 -6.3125 5.5 C-19.41959502 11.86630329 -26.60268206 20.72504325 -32 34 C-32.33 34.99 -32.66 35.98 -33 37 C-33.66 37 -34.32 37 -35 37 C-33.40018214 26.15679008 -27.55150338 16.86761662 -19 10 C-15.41575285 7.5209818 -11.74297207 5.23032554 -8 3 C-7.12601563 2.43796875 -6.25203125 1.8759375 -5.3515625 1.296875 C-3 0 -3 0 0 0 Z " fill="#1F9CE9" transform="translate(220,288)"/>
<path d="M0 0 C-2.09273722 1.06320672 -4.18886774 2.08446849 -6.33203125 3.04296875 C-14.25872167 6.70048102 -19.8230065 10.75183516 -23.4375 18.875 C-25.19214424 23.74320445 -25.33145062 27.86251544 -25 33 C-25.99 33 -26.98 33 -28 33 C-28.66746563 24.28586538 -26.88760861 17.77566039 -22.375 10.3125 C-16.47891528 4.5715754 -8.60557764 -2.45873647 0 0 Z " fill="#279EE7" transform="translate(237,301)"/>
<path d="M0 0 C1.80636673 1.80636673 2.82223562 3.24463713 4.0625 5.4375 C4.40410156 6.03433594 4.74570313 6.63117188 5.09765625 7.24609375 C6 9 6 9 7 12 C8.82237972 13.09403788 8.82237972 13.09403788 11 14 C11.68835938 14.4021875 12.37671875 14.804375 13.0859375 15.21875 C19.36226666 18.73178065 25.05501068 19.84392462 32.19140625 20.54296875 C33.11824219 20.69378906 34.04507813 20.84460938 35 21 C35.495 21.99 35.495 21.99 36 23 C25.91774946 23.59050057 16.74338577 22.27377382 8.78515625 15.671875 C4.05857635 11.24523124 0.5747438 7.4564496 -1 1 C-0.67 0.67 -0.34 0.34 0 0 Z " fill="#3AA9EF" transform="translate(221,217)"/>
<path d="M0 0 C0.33 0.66 0.66 1.32 1 2 C-5.62742091 12.99372174 -14.00959118 21.85096558 -26 27 C-26.99 26.67 -27.98 26.34 -29 26 C-28.34 26 -27.68 26 -27 26 C-27 25.34 -27 24.68 -27 24 C-26.14728516 23.56300781 -26.14728516 23.56300781 -25.27734375 23.1171875 C-20.46227215 20.56093914 -16.38906685 17.87106274 -12.41015625 14.13671875 C-11 13 -11 13 -9 13 C-8.7215625 12.42636719 -8.443125 11.85273438 -8.15625 11.26171875 C-7.02333973 9.0456544 -5.80417322 6.93178149 -4.5 4.8125 C-3.86578125 3.77029297 -3.86578125 3.77029297 -3.21875 2.70703125 C-2 1 -2 1 0 0 Z " fill="#2098E5" transform="translate(308,228)"/>
<path d="M0 0 C0.66 0.66 1.32 1.32 2 2 C-8.28941695 8.07897757 -18.60531173 14.10253819 -29 20 C-28.77783203 18.1796875 -28.77783203 18.1796875 -28 16 C-26.06982422 14.5078125 -26.06982422 14.5078125 -23.5546875 13.125 C-22.64203125 12.61453125 -21.729375 12.1040625 -20.7890625 11.578125 C-19.82742188 11.05734375 -18.86578125 10.5365625 -17.875 10 C-16.9365625 9.47921875 -15.998125 8.9584375 -15.03125 8.421875 C-13.20037117 7.4064296 -11.36678573 6.39584599 -9.53027344 5.390625 C-6.33068681 3.63214898 -3.16337109 1.82266257 0 0 Z " fill="#3CA2D8" transform="translate(361,391)"/>
<path d="M0 0 C0.87426573 2.73208042 0.96279031 4.51163321 0.75 7.4375 C1.00113337 11.01615057 1.39668756 12.43739929 4.08984375 14.80078125 C8.40394049 17.50922235 13.24694078 19.21855037 18 21 C18 21.66 18 22.32 18 23 C11.1391231 21.92601375 2.53055267 18.7512873 -1.8125 13.0625 C-3.30399061 9.21602423 -3.04606046 6.96008601 -2 3 C-1.34 2.01 -0.68 1.02 0 0 Z " fill="#1F96E9" transform="translate(238,260)"/>
<path d="M0 0 C1 3 1 3 -0.375 5.8125 C-5.90601964 13.39413576 -15.160667 16.90127568 -24 19 C-26.859375 19.1015625 -26.859375 19.1015625 -29 19 C-29 18.34 -29 17.68 -29 17 C-28.10539062 16.78085937 -27.21078125 16.56171875 -26.2890625 16.3359375 C-15.21365405 13.43129946 -6.11186347 10.18643911 0 0 Z " fill="#2A98DE" transform="translate(295,340)"/>
<path d="M0 0 C-1.16447508 2.32895015 -1.85139927 3.49597949 -4 5 C-7.25 4.6875 -7.25 4.6875 -11 4 C-13.31 4 -15.62 4 -18 4 C-18 11.92 -18 19.84 -18 28 C-18.33 28 -18.66 28 -19 28 C-19 20.08 -19 12.16 -19 4 C-19.99 3.67 -20.98 3.34 -22 3 C-20.96359375 2.86722656 -19.9271875 2.73445313 -18.859375 2.59765625 C-17.48956735 2.41939361 -16.11977656 2.24100138 -14.75 2.0625 C-14.06808594 1.97548828 -13.38617188 1.88847656 -12.68359375 1.79882812 C-8.42248614 1.24033344 -4.27935228 0 0 0 Z " fill="#5FB8ED" transform="translate(278,254)"/>
<path d="M0 0 C8.415 2.475 8.415 2.475 17 5 C17 5.66 17 6.32 17 7 C22.445 7.495 22.445 7.495 28 8 C28 8.33 28 8.66 28 9 C18.46906319 9.77803566 8.71562427 6.69955753 0 3 C0 2.01 0 1.02 0 0 Z " fill="#2E9DE0" transform="translate(212,371)"/>
<path d="M0 0 C0.99 0.33 1.98 0.66 3 1 C4.64364621 8.21378059 4.56366008 15.76807212 3 23 C2.34 23 1.68 23 1 23 C0.67 23.66 0.34 24.32 0 25 C0.08378906 23.865625 0.16757812 22.73125 0.25390625 21.5625 C0.35717087 20.04169378 0.46001284 18.52085881 0.5625 17 C0.61857422 16.25621094 0.67464844 15.51242187 0.73242188 14.74609375 C1.06347285 9.66997882 0.77163045 5.02988738 0 0 Z " fill="#3FA1DF" transform="translate(321,315)"/>
<path d="M0 0 C1.67180274 0.94934513 3.33733936 1.90973313 5 2.875 C6.3921875 3.67550781 6.3921875 3.67550781 7.8125 4.4921875 C8.8953125 5.23855469 8.8953125 5.23855469 10 6 C10 6.66 10 7.32 10 8 C10.66 8 11.32 8 12 8 C13.32421875 9.609375 13.32421875 9.609375 14.6875 11.75 C15.14511719 12.44609375 15.60273438 13.1421875 16.07421875 13.859375 C17.16906025 16.39090725 16.9435441 17.46100862 16 20 C14.89876052 18.34814078 13.81877945 16.67857841 12.84375 14.94921875 C9.01951311 8.51249445 4.63510599 5.34377871 -2 2 C-1.34 1.34 -0.68 0.68 0 0 Z " fill="#53B1F2" transform="translate(271,179)"/>
<path d="M0 0 C4.91441412 1.43652105 9.00238358 3.54159615 13.375 6.125 C14.01566406 6.49753906 14.65632812 6.87007813 15.31640625 7.25390625 C16.88048477 8.16434002 18.44065534 9.08148191 20 10 C19.67 10.99 19.34 11.98 19 13 C15.82640211 11.2204041 12.66241477 9.42438252 9.5 7.625 C8.14068359 6.86316406 8.14068359 6.86316406 6.75390625 6.0859375 C5.46806641 5.35117187 5.46806641 5.35117187 4.15625 4.6015625 C3.36025391 4.15119629 2.56425781 3.70083008 1.74414062 3.23681641 C1.16857422 2.82866699 0.59300781 2.42051758 0 2 C0 1.34 0 0.68 0 0 Z " fill="#2DA0E1" transform="translate(171,403)"/>
<path d="M0 0 C3.69246719 1.41241914 7.18950217 3.03294384 10.6875 4.875 C11.64011719 5.36742187 12.59273438 5.85984375 13.57421875 6.3671875 C16.11387912 8.07665293 16.95307293 9.17146018 18 12 C14.0273654 10.52129712 10.42707325 8.66821313 6.75 6.5625 C5.16445313 5.66724609 5.16445313 5.66724609 3.546875 4.75390625 C1 3 1 3 0 0 Z " fill="#5BC2FA" transform="translate(266,55)"/>
<path d="M0 0 C0 0.66 0 1.32 0 2 C-2.05078125 2.22786458 -4.1015625 2.45572917 -6.15234375 2.68359375 C-8.01140229 2.81886614 -8.01140229 2.81886614 -9 4 C-9.08713831 5.70772358 -9.10700007 7.41898649 -9.09765625 9.12890625 C-9.09443359 10.16337891 -9.09121094 11.19785156 -9.08789062 12.26367188 C-9.07951172 13.35228516 -9.07113281 14.44089844 -9.0625 15.5625 C-9.05798828 16.65498047 -9.05347656 17.74746094 -9.04882812 18.87304688 C-9.03699826 21.58208495 -9.02051543 24.29101599 -9 27 C-10.32 26.67 -11.64 26.34 -13 26 C-12.67 25.67 -12.34 25.34 -12 25 C-11.84235595 23.22130274 -11.74899323 21.43681524 -11.68359375 19.65234375 C-11.64169922 18.57275391 -11.59980469 17.49316406 -11.55664062 16.38085938 C-11.51732422 15.24455078 -11.47800781 14.10824219 -11.4375 12.9375 C-11.39431641 11.79732422 -11.35113281 10.65714844 -11.30664062 9.48242188 C-11.20017161 6.65507805 -11.09815793 3.82764262 -11 1 C-7.26513121 0.4254048 -3.78706732 0 0 0 Z " fill="#41ABE9" transform="translate(271,257)"/>
<path d="M0 0 C6.27 1.32 12.54 2.64 19 4 C17 6 17 6 15.08203125 6.08203125 C9.87187521 5.46326917 5.66956395 4.43206456 1 2 C0.67 1.34 0.34 0.68 0 0 Z " fill="#33A4E8" transform="translate(234,299)"/>
<path d="M0 0 C4.76732008 0.51634179 7.86931226 1.82674688 11.875 4.4375 C12.84179688 5.05496094 13.80859375 5.67242187 14.8046875 6.30859375 C15.89136719 7.14583984 15.89136719 7.14583984 17 8 C17 8.66 17 9.32 17 10 C12.97683781 8.51463956 9.38707358 6.60123107 5.6875 4.4375 C4.61886719 3.81746094 3.55023438 3.19742188 2.44921875 2.55859375 C1.64097656 2.04425781 0.83273437 1.52992187 0 1 C0 0.67 0 0.34 0 0 Z " fill="#59BEF7" transform="translate(293,72)"/>
<path d="M0 0 C-9.42857143 8 -9.42857143 8 -14 8 C-12.74539271 4.23617813 -11.47381388 3.74958162 -8.125 1.75 C-7.24070312 1.20859375 -6.35640625 0.6671875 -5.4453125 0.109375 C-3 -1 -3 -1 0 0 Z " fill="#41A0D6" transform="translate(411,364)"/>
<path d="M0 0 C1.98498051 0.92512666 3.96286018 1.86550237 5.9375 2.8125 C7.03964844 3.33457031 8.14179687 3.85664063 9.27734375 4.39453125 C12 6 12 6 13 9 C8.33138019 7.39516194 3.90741833 5.02509806 0 2 C0 1.34 0 0.68 0 0 Z " fill="#2FA8EE" transform="translate(103,363)"/>
<path d="M0 0 C0.66 0 1.32 0 2 0 C4 4 6 8 8 12 C5.42783554 11.6452187 4.20322713 11.1957002 2.3125 9.375 C0.61074846 6.29564007 0.33411215 3.47476635 0 0 Z " fill="#2EA6EC" transform="translate(211,276)"/>
<path d="M0 0 C3.99012371 0.55989303 6.5255052 1.75669768 9.8125 4.0625 C10.60269531 4.61035156 11.39289063 5.15820312 12.20703125 5.72265625 C12.79871094 6.14417969 13.39039063 6.56570313 14 7 C13.01 7.33 12.02 7.66 11 8 C8.30078125 6.6015625 8.30078125 6.6015625 5.3125 4.625 C4.31863281 3.97789062 3.32476562 3.33078125 2.30078125 2.6640625 C1.16189453 1.84035156 1.16189453 1.84035156 0 1 C0 0.67 0 0.34 0 0 Z " fill="#289FE0" transform="translate(194,417)"/>
<path d="M0 0 C8.6309795 3.85421412 8.6309795 3.85421412 11 8 C7.78147169 7.36934243 5.49198931 6.21979305 2.75 4.4375 C2.04359375 3.98246094 1.3371875 3.52742187 0.609375 3.05859375 C-0.18726563 2.53458984 -0.18726563 2.53458984 -1 2 C-0.67 1.34 -0.34 0.68 0 0 Z " fill="#51B5E9" transform="translate(422,146)"/>
<path d="M0 0 C0.33 0 0.66 0 1 0 C1 3.63 1 7.26 1 11 C2.65 11 4.3 11 6 11 C6 11.66 6 12.32 6 13 C3.69 13.33 1.38 13.66 -1 14 C-0.67 9.38 -0.34 4.76 0 0 Z " fill="#3EA5E2" transform="translate(260,346)"/>
<path d="M0 0 C4.30764815 1.56641751 8.06171464 3.68336156 12 6 C12 6.33 12 6.66 12 7 C7.29761275 6.53898164 3.76737643 5.96823597 0 3 C0 2.01 0 1.02 0 0 Z " fill="#58C1F6" transform="translate(311,81)"/>
<path d="M0 0 C0.33 0.99 0.66 1.98 1 3 C-3.455 5.97 -3.455 5.97 -8 9 C-8.66 8.34 -9.32 7.68 -10 7 C-9.36191406 6.57847656 -8.72382813 6.15695312 -8.06640625 5.72265625 C-7.24011719 5.17480469 -6.41382813 4.62695312 -5.5625 4.0625 C-4.73878906 3.51722656 -3.91507812 2.97195313 -3.06640625 2.41015625 C-1.10014075 1.16197019 -1.10014075 1.16197019 0 0 Z " fill="#399CD6" transform="translate(429,350)"/>
<path d="M0 0 C4.19360449 0.67097672 7.40334352 2.8558394 11 5 C10.34 5.66 9.68 6.32 9 7 C6.03 5.35 3.06 3.7 0 2 C0 1.34 0 0.68 0 0 Z " fill="#2DA8EA" transform="translate(126,377)"/>
<path d="M0 0 C0.99 0 1.98 0 3 0 C4.38671875 1.53125 4.38671875 1.53125 5.6875 3.5 C6.12449219 4.1496875 6.56148438 4.799375 7.01171875 5.46875 C7.33785156 5.9740625 7.66398437 6.479375 8 7 C7.67 7.66 7.34 8.32 7 9 C1.21538462 4.56923077 1.21538462 4.56923077 0.125 1.6875 C0.08375 1.130625 0.0425 0.57375 0 0 Z " fill="#2FAEF1" transform="translate(80,347)"/>
<path d="M0 0 C1.45606519 4.52092968 0.27032841 7.51648796 -1 12 C-1.66 11.34 -2.32 10.68 -3 10 C-2.69903201 5.86169011 -2.32101984 3.48152976 0 0 Z " fill="#28A6EA" transform="translate(238,260)"/>
<path d="M0 0 C3.48221175 0.17411059 5.65214817 0.68551124 8.75 2.1875 C5.75 4.1875 5.75 4.1875 3.77734375 3.98046875 C2.74287109 3.68076172 2.74287109 3.68076172 1.6875 3.375 C0.99527344 3.18292969 0.30304688 2.99085938 -0.41015625 2.79296875 C-2.25 2.1875 -2.25 2.1875 -4.25 1.1875 C-3.25 0.1875 -3.25 0.1875 0 0 Z " fill="#5BB9F3" transform="translate(262.25,176.8125)"/>
<path d="M0 0 C4.51478398 0.53115106 7.34666857 2.36620292 11 5 C9.4375 5.75 9.4375 5.75 7 6 C4.49713591 4.86915563 2.32992278 3.47860484 0 2 C0 1.34 0 0.68 0 0 Z " fill="#2AA4E6" transform="translate(160,397)"/>
<path d="M0 0 C2.70931419 0.15481795 4.46584039 0.48172081 6.4453125 2.40234375 C7.67679642 3.89771708 8.8429837 5.4462924 10 7 C6.433255 7 5.89456323 6.36308045 3.3125 4.0625 C2.68988281 3.51722656 2.06726563 2.97195313 1.42578125 2.41015625 C0.95527344 1.94480469 0.48476563 1.47945313 0 1 C0 0.67 0 0.34 0 0 Z " fill="#2E9BE2" transform="translate(287,319)"/>
<path d="M0 0 C3.43927579 1.2419607 6.25207819 2.55740284 9 5 C9 5.66 9 6.32 9 7 C5.9168649 5.80100302 2.93720508 4.52299523 0 3 C0 2.01 0 1.02 0 0 Z " fill="#56BEF3" transform="translate(335,95)"/>
<path d="M0 0 C1.98 0 3.96 0 6 0 C6.33 0.99 6.66 1.98 7 3 C3.04 3 -0.92 3 -5 3 C-5 2.67 -5 2.34 -5 2 C-3.35 1.67 -1.7 1.34 0 1 C0 0.67 0 0.34 0 0 Z " fill="#4AB3F1" transform="translate(250,176)"/>
<path d="M0 0 C0.66 0 1.32 0 2 0 C1.67 4.62 1.34 9.24 1 14 C0.67 14 0.34 14 0 14 C-0.19393875 11.85473901 -0.37998676 9.70876323 -0.5625 7.5625 C-0.71912109 5.77005859 -0.71912109 5.77005859 -0.87890625 3.94140625 C-0.91886719 2.97074219 -0.95882812 2.00007813 -1 1 C-0.67 0.67 -0.34 0.34 0 0 Z " fill="#33A4E9" transform="translate(185,325)"/>
<path d="M0 0 C2.64 0.99 5.28 1.98 8 3 C8 3.66 8 4.32 8 5 C4.44219804 4.39009109 1.3171411 3.4216319 -2 2 C-1.34 1.34 -0.68 0.68 0 0 Z " fill="#24A0E6" transform="translate(248,278)"/>
<path d="M0 0 C2.4750171 1.11431765 4.67883419 2.58150978 7 4 C7 4.66 7 5.32 7 6 C3.22454612 4.90931332 0.52956528 4.0916909 -2 1 C-1.34 0.67 -0.68 0.34 0 0 Z " fill="#5ABBF4" transform="translate(327,90)"/>
<path d="M0 0 C-1.06546953 2.13093906 -2.29159719 3.36587557 -4 5 C-5.32 4.34 -6.64 3.68 -8 3 C-7 1 -7 1 -5.125 0.375 C-3 0 -3 0 0 0 Z " fill="#76BCF0" transform="translate(278,254)"/>
<path d="M0 0 C3.06393013 -0.25532751 4.63233212 -0.21861333 7.3125 1.375 C7.869375 1.91125 8.42625 2.4475 9 3 C9 3.66 9 4.32 9 5 C5.22454612 3.90931332 2.52956528 3.0916909 0 0 Z " fill="#2EA8E8" transform="translate(150,392)"/>
<path d="M0 0 C0.598125 0.20625 1.19625 0.4125 1.8125 0.625 C-3.9375 4.625 -3.9375 4.625 -6.1875 4.625 C-5.03076352 1.15479057 -3.91311293 -0.67081936 0 0 Z " fill="#41A1D7" transform="translate(369.1875,387.375)"/>
<path d="M0 0 C0.598125 0.20625 1.19625 0.4125 1.8125 0.625 C-3.9375 4.625 -3.9375 4.625 -6.1875 4.625 C-5.03076352 1.15479057 -3.91311293 -0.67081936 0 0 Z " fill="#3F9FD5" transform="translate(386.1875,377.375)"/>
<path d="M0 0 C2.875 0.25 2.875 0.25 6 1 C7.375 3.0625 7.375 3.0625 8 5 C1.125 2.25 1.125 2.25 0 0 Z " fill="#2CA7EE" transform="translate(94,359)"/>
<path d="M0 0 C-0.33 0.99 -0.66 1.98 -1 3 C-3.5625 4.1875 -3.5625 4.1875 -6 5 C-6 4.01 -6 3.02 -6 2 C-2.25 0 -2.25 0 0 0 Z " fill="#42A1DA" transform="translate(378,382)"/>
<path d="M0 0 C0.99 0.33 1.98 0.66 3 1 C3.33 2.98 3.66 4.96 4 7 C3.01 6.67 2.02 6.34 1 6 C0.67 4.02 0.34 2.04 0 0 Z " fill="#15A0F2" transform="translate(195,220)"/>
</svg>
